<svg width="287" height="284" viewBox="0 0 287 284" fill="none" xmlns="http://www.w3.org/2000/svg">
<path d="M274 224.764C274.015 239.135 271.631 253.408 266.943 267C247.163 261.024 229.089 250.466 214.202 236.193C199.315 221.92 188.039 204.337 181.3 184.888C156.641 192.273 130.344 192.273 105.685 184.888C98.9461 204.336 87.6718 221.918 72.7863 236.191C57.9007 250.465 39.8279 261.023 20.05 267C13.9067 249.161 11.74 230.204 13.7005 211.447C15.661 192.691 21.7016 174.583 31.4025 158.385C41.1035 142.186 54.2321 128.284 69.8759 117.645C85.52 107.006 103.303 99.8841 121.991 96.7762C140.68 93.6682 159.823 94.6476 178.093 99.6464C196.362 104.645 213.319 113.544 227.784 125.724C242.25 137.903 253.877 153.071 261.858 170.175C269.839 187.279 273.982 205.907 274 224.764Z" stroke="black" stroke-width="22" stroke-miterlimit="10"/>
<path d="M274 59.2205C273.985 78.0792 269.843 96.708 261.863 113.813C253.884 130.918 242.258 146.088 227.792 158.27C213.328 170.45 196.371 179.351 178.102 184.351C159.832 189.351 140.688 190.332 121.999 187.225C103.31 184.118 85.5253 176.997 69.8806 166.359C54.2357 155.72 41.1061 141.818 31.4044 125.619C21.7027 109.42 15.6614 91.312 13.7007 72.5545C11.7398 53.7973 13.9065 34.8399 20.05 17C39.8293 22.9763 57.9036 33.534 72.7905 47.8073C87.6778 62.0808 98.9528 79.6628 105.693 99.1123C130.349 91.7282 156.643 91.7282 181.3 99.1123C188.04 79.6628 199.315 62.0808 214.202 47.8073C229.089 33.534 247.163 22.9763 266.943 17C271.629 30.5871 274.014 44.855 274 59.2205Z" stroke="black" stroke-width="26" stroke-miterlimit="10"/>
<path d="M112 141.992C112.025 170.03 103.09 197.33 86.5201 219.846C69.95 242.362 46.6257 258.897 20.004 267C12.8603 245.981 11.1461 223.475 15.0229 201.603C18.8998 179.731 28.2399 159.216 42.1619 141.992C28.2424 124.771 18.9038 104.259 15.027 82.3897C11.1502 60.5207 12.863 38.0165 20.004 17C46.6233 25.1021 69.9459 41.6346 86.5157 64.1481C103.086 86.6612 112.022 113.958 112 141.992Z" stroke="black" stroke-width="26" stroke-miterlimit="10"/>
<path d="M244.278 142C258.467 159.222 267.987 179.736 271.938 201.607C275.89 223.477 274.142 245.982 266.862 267C239.72 258.898 215.937 242.367 199.033 219.854C182.128 197.342 173 170.043 173 142C173 113.957 182.128 86.6581 199.033 64.1456C215.937 41.6328 239.72 25.1021 266.862 17C274.142 38.0173 275.89 60.5231 271.938 82.3934C267.987 104.264 258.467 124.778 244.278 142Z" stroke="black" stroke-width="26" stroke-miterlimit="10"/>
</svg>
