<svg width="1634" height="287" viewBox="0 0 1634 287" fill="none" xmlns="http://www.w3.org/2000/svg">
<path d="M274 227.764C274.015 242.135 271.631 256.408 266.943 270C247.163 264.024 229.089 253.466 214.202 239.193C199.315 224.92 188.039 207.337 181.3 187.888C156.641 195.273 130.344 195.273 105.685 187.888C98.9461 207.336 87.6718 224.918 72.7863 239.191C57.9007 253.465 39.8279 264.023 20.05 270C13.9067 252.161 11.74 233.204 13.7005 214.447C15.661 195.691 21.7016 177.583 31.4025 161.385C41.1035 145.186 54.2321 131.284 69.8759 120.645C85.52 110.006 103.303 102.884 121.991 99.7762C140.68 96.6682 159.823 97.6476 178.093 102.646C196.362 107.645 213.319 116.544 227.784 128.724C242.25 140.903 253.877 156.071 261.858 173.175C269.839 190.279 273.982 208.907 274 227.764Z" stroke="black" stroke-width="22" stroke-miterlimit="10"/>
<path d="M274 62.2205C273.985 81.0792 269.843 99.708 261.863 116.813C253.884 133.918 242.258 149.088 227.792 161.27C213.328 173.45 196.371 182.351 178.102 187.351C159.832 192.351 140.688 193.332 121.999 190.225C103.31 187.118 85.5253 179.997 69.8806 169.359C54.2357 158.72 41.1061 144.818 31.4044 128.619C21.7027 112.42 15.6614 94.312 13.7007 75.5545C11.7398 56.7973 13.9065 37.8399 20.05 20C39.8293 25.9763 57.9036 36.534 72.7905 50.8073C87.6778 65.0808 98.9528 82.6628 105.693 102.112C130.349 94.7282 156.643 94.7282 181.3 102.112C188.04 82.6628 199.315 65.0808 214.202 50.8073C229.089 36.534 247.163 25.9763 266.943 20C271.629 33.5871 274.014 47.855 274 62.2205Z" stroke="black" stroke-width="26" stroke-miterlimit="10"/>
<path d="M112 144.992C112.025 173.03 103.09 200.33 86.5201 222.846C69.95 245.362 46.6257 261.897 20.004 270C12.8603 248.981 11.1461 226.475 15.0229 204.603C18.8998 182.731 28.2399 162.216 42.1619 144.992C28.2424 127.771 18.9038 107.259 15.027 85.3897C11.1502 63.5207 12.863 41.0165 20.004 20C46.6233 28.1021 69.9459 44.6346 86.5157 67.1481C103.086 89.6612 112.022 116.958 112 144.992Z" stroke="black" stroke-width="26" stroke-miterlimit="10"/>
<path d="M244.278 145C258.467 162.222 267.987 182.736 271.938 204.607C275.89 226.477 274.142 248.982 266.862 270C239.72 261.898 215.937 245.367 199.033 222.854C182.128 200.342 173 173.043 173 145C173 116.957 182.128 89.6581 199.033 67.1456C215.937 44.6328 239.72 28.1021 266.862 20C274.142 41.0173 275.89 63.5231 271.938 85.3934C267.987 107.264 258.467 127.778 244.278 145Z" stroke="black" stroke-width="26" stroke-miterlimit="10"/>
<path d="M356.44 124.04C356.44 110.6 361.387 100.147 371.28 92.68C381.173 85.0267 394.52 81.2 411.32 81.2C426.44 81.2 439.04 84.6533 449.12 91.56C459.2 98.28 466.013 107.427 469.56 119L437.64 128.8C434.653 114.987 425.88 108.08 411.32 108.08C404.6 108.08 399.467 109.293 395.92 111.72C392.373 114.147 390.6 117.507 390.6 121.8C390.6 126.28 392.373 129.733 395.92 132.16C399.653 134.4 405.347 136.267 413 137.76L420.28 139.16C432.413 141.587 442.307 144.293 449.96 147.28C457.613 150.267 463.68 154.56 468.16 160.16C472.827 165.76 475.16 173.133 475.16 182.28C475.16 196.653 469.933 207.853 459.48 215.88C449.027 223.907 434.84 227.92 416.92 227.92C398.627 227.92 383.693 224 372.12 216.16C360.733 208.32 353.827 197.12 351.4 182.56L383.88 174.16C387.053 192.08 398.067 201.04 416.92 201.04C424.76 201.04 430.733 199.547 434.84 196.56C438.947 193.573 441 189.747 441 185.08C441 180.787 439.04 177.427 435.12 175C431.2 172.387 424.76 170.24 415.8 168.56L408.52 167.16C391.907 163.987 379.027 159.227 369.88 152.88C360.92 146.347 356.44 136.733 356.44 124.04ZM490.28 154.56C490.28 139.813 493.453 126.933 499.8 115.92C506.147 104.72 514.827 96.1333 525.84 90.16C536.853 84.1867 549.267 81.2 563.08 81.2C576.893 81.2 589.307 84.1867 600.32 90.16C611.333 96.1333 620.013 104.72 626.36 115.92C632.707 126.933 635.88 139.813 635.88 154.56C635.88 169.307 632.707 182.28 626.36 193.48C620.013 204.493 611.333 212.987 600.32 218.96C589.307 224.933 576.893 227.92 563.08 227.92C549.267 227.92 536.853 224.933 525.84 218.96C514.827 212.987 506.147 204.493 499.8 193.48C493.453 182.28 490.28 169.307 490.28 154.56ZM525.56 154.56C525.56 167.813 529.013 178.267 535.92 185.92C542.827 193.387 551.88 197.12 563.08 197.12C574.28 197.12 583.333 193.387 590.24 185.92C597.147 178.267 600.6 167.813 600.6 154.56C600.6 141.307 597.147 130.947 590.24 123.48C583.333 115.827 574.28 112 563.08 112C551.88 112 542.827 115.827 535.92 123.48C529.013 130.947 525.56 141.307 525.56 154.56ZM650.514 154.56C650.514 140.56 653.688 127.96 660.034 116.76C666.381 105.56 675.061 96.88 686.074 90.72C697.088 84.3733 709.314 81.2 722.754 81.2C741.421 81.2 756.634 86.1467 768.394 96.04C780.341 105.747 787.901 118.72 791.074 134.96L756.914 142.24C755.794 133.28 752.434 126 746.834 120.4C741.234 114.8 733.394 112 723.314 112C712.301 112 703.248 115.827 696.154 123.48C689.248 131.133 685.794 141.493 685.794 154.56C685.794 167.627 689.248 177.987 696.154 185.64C703.248 193.293 712.301 197.12 723.314 197.12C733.394 197.12 741.234 194.413 746.834 189C752.621 183.587 756.354 176.12 758.034 166.6L792.194 174.72C788.088 190.773 780.154 203.653 768.394 213.36C756.634 223.067 741.421 227.92 722.754 227.92C709.314 227.92 697.088 224.84 686.074 218.68C675.061 212.333 666.381 203.56 660.034 192.36C653.688 181.16 650.514 168.56 650.514 154.56ZM849.233 224H813.953V85.12H849.233V224ZM806.673 44.8C806.673 37.7067 809.007 31.92 813.673 27.44C818.527 22.96 824.5 20.72 831.593 20.72C838.687 20.72 844.567 22.96 849.233 27.44C854.087 31.92 856.513 37.7067 856.513 44.8C856.513 51.8933 854.087 57.68 849.233 62.16C844.567 66.64 838.687 68.88 831.593 68.88C824.5 68.88 818.527 66.64 813.673 62.16C809.007 57.68 806.673 51.8933 806.673 44.8ZM878.992 120.4C882.726 108.827 889.632 99.4 899.712 92.12C909.979 84.84 923.606 81.2 940.592 81.2C959.072 81.2 973.539 85.8667 983.992 95.2C994.632 104.347 999.952 117.507 999.952 134.68V224H966.352V207.76H962.432C960.379 212.613 956.366 217.187 950.392 221.48C944.606 225.773 936.112 227.92 924.912 227.92C910.166 227.92 897.939 224 888.232 216.16C878.712 208.133 873.952 197.213 873.952 183.4C873.952 169.587 878.806 158.947 888.512 151.48C898.406 143.827 911.472 140 927.712 140H965.792V132.16C965.792 125.253 963.646 119.747 959.352 115.64C955.059 111.347 948.619 109.2 940.032 109.2C931.632 109.2 925.099 111.253 920.432 115.36C915.766 119.28 912.779 124.6 911.472 131.32L878.992 120.4ZM909.232 182.56C909.232 187.6 911.192 191.707 915.112 194.88C919.219 197.867 924.912 199.36 932.192 199.36C942.086 199.36 950.112 196.56 956.272 190.96C962.619 185.173 965.792 177.707 965.792 168.56V166.32H930.232C923.699 166.32 918.566 167.813 914.832 170.8C911.099 173.787 909.232 177.707 909.232 182.56ZM1064.98 224H1029.7V28H1064.98V224ZM1116.57 85.12V42H1151.85V85.12H1189.93V113.68H1151.85V187.04C1151.85 192.64 1154.47 195.44 1159.69 195.44H1186.57V224H1147.37C1138.04 224 1130.57 221.2 1124.97 215.6C1119.37 209.813 1116.57 202.16 1116.57 192.64V113.68H1081.85V85.12H1116.57ZM1250.97 104.72C1253.58 97.6267 1257.69 92.4933 1263.29 89.32C1269.07 86.1467 1276.54 84.56 1285.69 84.56H1300.25V114.24H1279.53C1270.19 114.24 1262.73 116.76 1257.13 121.8C1251.53 126.653 1248.73 133.84 1248.73 143.36V224H1213.45V85.12H1248.17V104.72H1250.97ZM1315.13 120.4C1318.86 108.827 1325.77 99.4 1335.85 92.12C1346.11 84.84 1359.74 81.2 1376.73 81.2C1395.21 81.2 1409.67 85.8667 1420.13 95.2C1430.77 104.347 1436.09 117.507 1436.09 134.68V224H1402.49V207.76H1398.57C1396.51 212.613 1392.5 217.187 1386.53 221.48C1380.74 225.773 1372.25 227.92 1361.05 227.92C1346.3 227.92 1334.07 224 1324.37 216.16C1314.85 208.133 1310.09 197.213 1310.09 183.4C1310.09 169.587 1314.94 158.947 1324.65 151.48C1334.54 143.827 1347.61 140 1363.85 140H1401.93V132.16C1401.93 125.253 1399.78 119.747 1395.49 115.64C1391.19 111.347 1384.75 109.2 1376.17 109.2C1367.77 109.2 1361.23 111.253 1356.57 115.36C1351.9 119.28 1348.91 124.6 1347.61 131.32L1315.13 120.4ZM1345.37 182.56C1345.37 187.6 1347.33 191.707 1351.25 194.88C1355.35 197.867 1361.05 199.36 1368.33 199.36C1378.22 199.36 1386.25 196.56 1392.41 190.96C1398.75 185.173 1401.93 177.707 1401.93 168.56V166.32H1366.37C1359.83 166.32 1354.7 167.813 1350.97 170.8C1347.23 173.787 1345.37 177.707 1345.37 182.56ZM1501.11 224H1465.83V85.12H1501.11V224ZM1458.55 44.8C1458.55 37.7067 1460.88 31.92 1465.55 27.44C1470.4 22.96 1476.38 20.72 1483.47 20.72C1490.56 20.72 1496.44 22.96 1501.11 27.44C1505.96 31.92 1508.39 37.7067 1508.39 44.8C1508.39 51.8933 1505.96 57.68 1501.11 62.16C1496.44 66.64 1490.56 68.88 1483.47 68.88C1476.38 68.88 1470.4 66.64 1465.55 62.16C1460.88 57.68 1458.55 51.8933 1458.55 44.8ZM1552.71 85.12V42H1587.99V85.12H1626.07V113.68H1587.99V187.04C1587.99 192.64 1590.6 195.44 1595.83 195.44H1622.71V224H1583.51C1574.17 224 1566.71 221.2 1561.11 215.6C1555.51 209.813 1552.71 202.16 1552.71 192.64V113.68H1517.99V85.12H1552.71Z" fill="black"/>
</svg>
